<?xml version="1.0" standalone="no"?>
<!DOCTYPE svg PUBLIC "-//W3C//DTD SVG 20010904//EN"
 "http://www.w3.org/TR/2001/REC-SVG-20010904/DTD/svg10.dtd">
<svg version="1.0" xmlns="http://www.w3.org/2000/svg"
 width="1000.000000pt" height="1000.000000pt" viewBox="0 0 1000.000000 1000.000000"
 preserveAspectRatio="xMidYMid meet">
<metadata>
Created by potrace 1.14, written by Peter Selinger 2001-2017
</metadata>
<g transform="translate(0.000000,1000.000000) scale(0.100000,-0.100000)"
fill="#000000" stroke="none">
<path d="M4750 7829 c-204 -18 -454 -70 -650 -136 -420 -141 -779 -363 -1096
-678 -460 -457 -733 -1006 -826 -1665 -20 -146 -17 -594 6 -740 113 -730 446
-1329 995 -1789 706 -592 1679 -801 2576 -554 50 14 92 27 95 30 3 3 -8 2 -25
-2 -48 -12 -145 -11 -145 1 0 6 13 9 30 6 17 -2 36 1 44 7 10 8 16 9 21 1 3
-5 13 -10 21 -10 8 0 13 4 9 9 -6 11 31 9 56 -3 9 -4 31 0 50 8 22 10 25 14 9
10 -14 -4 -30 -9 -37 -11 -22 -8 -2 36 24 53 14 9 22 11 18 5 -5 -8 1 -10 19
-5 21 5 25 3 20 -9 -3 -9 -14 -13 -27 -11 -22 5 -22 4 0 -5 17 -8 37 -5 80 11
31 12 51 24 45 26 -7 2 -26 -4 -43 -12 -43 -21 -57 -20 -33 3 10 10 26 16 34
14 12 -4 12 -3 1 5 -15 11 -53 4 -46 -9 3 -4 -8 -3 -25 2 -16 6 -30 12 -30 13
0 1 16 2 36 2 19 0 39 6 44 14 6 9 22 11 59 7 30 -4 51 -2 51 3 0 6 8 10 18
10 14 -1 13 -4 -6 -20 -16 -13 -33 -18 -55 -15 l-32 5 29 -10 c22 -7 36 -5 60
8 17 9 34 16 37 17 3 0 29 11 58 25 46 21 52 27 47 47 -3 13 -9 34 -12 48 -4
14 -2 25 2 25 13 0 37 -58 30 -75 -3 -9 0 -12 8 -9 14 5 17 54 4 54 -13 0 -9
23 8 41 11 13 25 16 50 12 20 -3 34 -1 34 4 0 15 55 36 77 30 15 -4 14 -5 -4
-6 -12 0 -25 -5 -28 -11 -8 -12 -3 -13 29 0 14 5 26 6 26 1 0 -5 -11 -12 -25
-15 -14 -4 -25 -11 -25 -16 0 -6 -4 -10 -10 -10 -5 0 -10 7 -10 15 0 8 -5 15
-10 15 -7 0 -7 -7 1 -22 10 -18 9 -20 -5 -15 -11 5 -15 3 -10 -5 5 -8 0 -9
-17 -4 -68 21 -90 12 -41 -15 26 -16 29 -15 72 12 25 16 55 33 68 39 13 5 51
29 84 52 53 35 59 42 42 49 -31 12 -39 10 -18 -6 19 -15 19 -16 -1 -13 -12 2
-19 -2 -18 -9 2 -7 -2 -13 -7 -13 -20 0 -25 -3 -38 -22 -7 -10 -18 -15 -24
-12 -6 4 -5 10 3 15 12 7 11 9 -1 10 -8 1 -24 0 -35 -1 -16 -2 -17 0 -6 14 7
8 33 16 59 18 42 3 47 6 47 27 0 13 6 26 14 29 8 3 11 0 7 -7 -13 -20 7 -11
36 16 15 15 28 22 28 15 0 -6 -8 -17 -19 -24 -14 -10 -16 -16 -6 -25 9 -8 22
-3 56 24 24 19 44 40 44 46 0 7 7 17 15 24 20 17 0 16 -22 -1 -13 -10 -15 -15
-6 -24 9 -9 9 -12 -1 -12 -8 0 -24 -11 -37 -25 -13 -14 -28 -25 -35 -25 -7 0
1 12 17 27 27 25 28 27 9 35 -18 8 -18 8 3 4 13 -2 22 1 22 9 0 16 55 39 70
30 8 -5 6 -13 -7 -28 -15 -17 -12 -17 14 3 18 14 30 31 28 38 -3 8 0 10 6 6 6
-4 15 0 20 7 4 8 13 14 18 14 16 0 191 167 185 176 -3 5 -1 8 3 7 12 -4 99 92
95 104 -1 5 2 7 7 4 12 -8 82 84 74 97 -3 5 -1 7 4 4 6 -4 40 34 77 83 64 86
76 108 57 95 -5 -3 -12 -1 -15 4 -3 4 4 8 16 7 16 -1 34 22 84 104 206 340
333 704 391 1120 21 152 23 525 4 675 -33 263 -115 568 -209 780 -51 114 -85
178 -76 145 6 -24 6 -24 -10 -5 -10 13 -15 15 -16 6 0 -9 -8 -11 -25 -7 -17 4
-24 3 -23 -6 2 -7 -17 -18 -42 -26 -77 -23 -141 -55 -136 -68 3 -8 -11 -14
-40 -19 -27 -4 -44 -11 -44 -20 0 -20 -72 -45 -132 -47 -15 0 -25 -4 -23 -8 3
-5 1 -11 -4 -14 -13 -8 -54 61 -45 75 4 7 3 9 -3 6 -6 -4 -34 29 -64 73 -29
44 -55 78 -57 76 -1 -2 23 -46 54 -97 162 -266 269 -575 310 -891 22 -178 15
-492 -15 -658 -43 -236 -93 -393 -192 -598 -161 -337 -386 -610 -691 -838
-295 -222 -676 -374 -1063 -425 -219 -29 -562 -10 -784 42 -621 147 -1168 560
-1477 1114 -21 39 -40 63 -42 55 -1 -8 -23 -24 -47 -35 -25 -11 -45 -22 -45
-26 0 -3 -18 -12 -40 -19 -22 -7 -40 -20 -40 -27 0 -12 -9 -13 -40 -8 -32 5
-40 4 -40 -8 0 -17 -31 -39 -79 -55 -19 -7 -47 -26 -61 -42 -30 -34 -39 -27
-41 28 l-1 27 -7 -25 -7 -25 -8 23 c-4 13 -10 21 -13 18 -3 -3 2 -17 11 -31 9
-14 14 -31 10 -37 -4 -7 -3 -8 4 -4 12 7 16 -5 13 -33 -2 -7 2 -10 8 -6 7 4 8
0 4 -11 -14 -37 -143 270 -199 475 -166 604 -134 1230 92 1803 300 763 932
1372 1700 1638 342 119 664 168 1029 157 652 -19 1241 -246 1755 -676 l75 -63
-74 72 c-243 234 -608 460 -943 583 -387 142 -829 202 -1238 166z m2332 -1801
c-6 -6 -16 -7 -22 -3 -9 6 -9 9 1 16 17 10 34 0 21 -13z m-6 -39 c4 -8 9 -7
15 2 6 10 9 10 9 2 0 -19 -14 -22 -35 -7 -10 8 -14 14 -8 14 7 0 15 -5 19 -11z
m34 -23 c0 -2 -8 -10 -17 -17 -16 -13 -17 -12 -4 4 13 16 21 21 21 13z m-4118
-2062 c-6 -12 -9 -7 -9 16 0 23 3 28 9 16 5 -9 5 -23 0 -32z m-394 -339 c-3
-3 -9 2 -12 12 -6 14 -5 15 5 6 7 -7 10 -15 7 -18z m3962 -379 c0 -2 -8 -10
-17 -17 -16 -13 -17 -12 -4 4 13 16 21 21 21 13z m527 -82 c0 -6 -7 -11 -16
-10 -9 1 -15 -5 -13 -11 1 -7 -2 -13 -8 -13 -13 0 -13 17 0 25 6 4 8 10 6 14
-3 3 3 7 13 7 10 0 18 -5 18 -12z m-78 -97 c0 -9 -2 -9 -6 1 -2 6 -9 12 -15
12 -6 0 -7 -7 -4 -16 3 -8 2 -12 -3 -9 -6 3 -9 14 -8 24 1 16 5 17 19 10 10
-5 18 -15 17 -22z m-34 -27 c3 -5 1 -10 -4 -10 -6 0 -11 5 -11 10 0 6 2 10 4
10 3 0 8 -4 11 -10z m-72 -45 c-3 -8 -2 -15 1 -15 4 0 11 10 16 23 6 15 9 17
9 6 1 -9 -6 -22 -14 -29 -8 -7 -15 -9 -15 -5 0 4 -7 2 -15 -5 -10 -9 -15 -9
-15 -1 0 6 5 11 11 11 6 0 9 6 6 14 -6 16 2 28 14 20 4 -2 6 -11 2 -19z m-56
-72 c0 -7 -4 -10 -9 -7 -5 3 -17 0 -26 -8 -15 -11 -15 -11 -5 3 7 9 11 18 8
20 -2 3 4 5 14 5 10 0 18 -6 18 -13z m-423 -237 c-21 -15 -30 -14 -19 3 3 6
14 11 23 11 13 0 13 -2 -4 -14z m-64 -86 c8 -5 12 -11 10 -14 -3 -2 -14 2 -24
10 -22 15 -10 19 14 4z m-110 -52 c-1 -28 -79 -71 -101 -57 -12 8 -12 11 1 19
28 18 -5 10 -37 -9 -17 -11 -34 -17 -37 -14 -3 3 14 16 37 28 29 16 46 20 54
13 8 -7 22 -6 40 0 l28 11 -34 -2 c-52 -3 -51 21 1 26 24 2 44 4 46 5 1 1 2
-8 2 -20z m-140 -18 c-8 -5 -19 -10 -25 -10 -5 0 -3 5 5 10 8 5 20 10 25 10 6
0 3 -5 -5 -10z m-383 -156 c-3 -3 -12 -4 -19 -1 -8 3 -5 6 6 6 11 1 17 -2 13
-5z m-17 -48 c-19 -7 -44 -10 -55 -7 -16 4 -12 7 15 12 58 11 77 8 40 -5z
m-95 -16 c3 -5 1 -10 -4 -10 -6 0 -11 5 -11 10 0 6 2 10 4 10 3 0 8 -4 11 -10z
m-90 -20 c18 -8 17 -9 -7 -9 -16 -1 -28 4 -28 9 0 12 8 12 35 0z m52 4 c-3 -3
-12 -4 -19 -1 -8 3 -5 6 6 6 11 1 17 -2 13 -5z m-111 -22 c-10 -2 -22 0 -28 6
-6 6 0 7 19 4 21 -5 23 -7 9 -10z"/>
<path d="M4758 7110 c-301 -38 -597 -138 -837 -282 -575 -346 -946 -911 -1032
-1573 -17 -133 -14 -409 5 -549 98 -693 530 -1294 1156 -1606 417 -209 911
-273 1371 -180 592 121 1096 481 1409 1006 261 439 353 988 249 1499 -25 123
-94 330 -149 448 -34 74 -43 87 -55 77 -8 -7 -12 -16 -9 -21 3 -5 0 -9 -5 -9
-6 0 -11 4 -11 10 0 5 -7 7 -15 4 -8 -4 -13 -10 -10 -15 7 -11 -22 -26 -68
-34 -20 -4 -37 -12 -37 -19 0 -6 -46 -33 -103 -61 -56 -27 -113 -57 -127 -66
-14 -9 -40 -20 -58 -24 -18 -3 -30 -11 -26 -16 3 -5 -1 -9 -9 -9 -8 0 -24 -9
-37 -20 -13 -11 -33 -20 -45 -20 -11 0 -25 -4 -30 -9 -20 -18 -145 -79 -174
-86 -19 -4 -29 -11 -25 -18 3 -7 -2 -3 -10 7 -9 11 -16 16 -16 11 0 -5 -16 6
-35 25 -19 18 -31 38 -28 44 3 6 2 8 -2 3 -5 -4 -20 4 -34 17 -14 13 -53 39
-86 56 l-60 33 55 -57 c30 -31 144 -141 253 -244 108 -103 197 -189 197 -192
0 -5 -159 -201 -374 -460 -34 -41 -123 -149 -197 -240 -675 -825 -873 -1065
-879 -1068 -3 -1 -118 277 -254 618 -137 341 -253 620 -259 620 -7 0 -7 -4 1
-12 7 -7 12 -26 11 -42 0 -17 -3 -24 -6 -16 -2 8 -7 21 -9 29 -7 22 -32 -18
-27 -43 3 -14 2 -17 -4 -9 -6 9 -27 5 -83 -15 -41 -14 -81 -32 -89 -40 -27
-27 -57 -41 -88 -44 -17 -1 -29 -6 -27 -10 8 -12 -55 -46 -128 -70 -38 -12
-68 -27 -68 -34 0 -11 -55 -36 -129 -59 -14 -4 -36 -18 -50 -31 -14 -13 -50
-31 -79 -39 -29 -9 -64 -26 -78 -38 -13 -11 -55 -37 -92 -57 -37 -20 -76 -41
-87 -47 -11 -7 -42 -22 -70 -34 -53 -24 -67 -37 -60 -56 2 -6 -1 -14 -8 -16
-9 -3 -9 -8 1 -19 11 -13 11 -18 0 -24 -7 -4 -10 -4 -6 1 4 4 3 13 -2 20 -6 7
-6 23 0 43 5 20 5 30 -1 27 -5 -4 -9 -13 -9 -21 0 -8 -5 -14 -11 -14 -6 0 -8
-9 -4 -22 3 -13 -8 6 -25 42 -17 35 -28 70 -25 78 2 7 1 10 -5 7 -13 -8 -76
195 -105 340 -137 673 65 1375 539 1873 267 280 605 484 971 586 164 46 309
67 500 73 270 8 488 -22 731 -102 326 -107 597 -276 849 -529 106 -108 121
-119 80 -66 -78 101 -270 288 -382 372 -265 199 -566 332 -890 394 -116 22
-172 27 -353 29 -118 2 -245 0 -282 -5z m-1568 -3160 c6 -11 8 -20 6 -20 -3 0
-10 9 -16 20 -6 11 -8 20 -6 20 3 0 10 -9 16 -20z"/>
<path d="M7480 6260 c0 -5 5 -10 10 -10 6 0 10 5 10 10 0 6 -4 10 -10 10 -5 0
-10 -4 -10 -10z"/>
<path d="M4240 5849 c226 -196 828 -685 837 -682 23 9 14 20 -54 74 -101 79
-682 560 -688 569 -2 4 17 3 43 -2 26 -4 157 -29 292 -54 135 -24 387 -71 562
-104 174 -33 324 -60 335 -60 19 1 60 27 52 34 -2 2 -83 18 -179 36 -96 17
-393 71 -660 120 -267 49 -507 94 -535 99 l-50 9 45 -39z"/>
<path d="M4100 5776 c0 -2 60 -157 134 -343 74 -186 243 -612 376 -948 133
-335 245 -614 249 -618 4 -4 13 45 20 110 7 65 35 305 62 535 27 229 49 427
48 440 0 12 2 37 5 53 3 17 3 21 0 10 -4 -11 -10 -25 -15 -31 -4 -5 -6 -21 -3
-35 4 -20 3 -19 -10 6 -8 17 -15 24 -15 18 -1 -7 -8 -13 -16 -13 -8 0 -15 -4
-15 -9 0 -10 -91 -51 -114 -51 -9 0 -16 -4 -16 -10 0 -5 -5 -10 -10 -10 -10 0
-21 -7 -53 -36 -7 -6 -23 -15 -35 -18 -12 -4 -22 -12 -22 -17 0 -5 -7 -9 -15
-9 -9 0 -20 -10 -26 -22 l-10 -23 5 23 c2 12 0 22 -5 22 -4 0 -5 7 -2 17 4 11
3 14 -6 9 -8 -5 -10 -19 -5 -39 15 -72 12 -64 -242 568 -115 285 -128 313
-167 348 -48 44 -97 81 -97 73z"/>
<path d="M6040 5581 c0 -6 4 -13 10 -16 6 -3 7 1 4 9 -7 18 -14 21 -14 7z"/>
<path d="M5517 5354 c-142 -119 -257 -217 -255 -219 2 -1 59 8 128 22 69 13
153 30 188 37 36 6 60 15 55 20 -4 5 -2 6 5 2 7 -4 108 10 224 30 l211 38 -52
48 c-29 27 -57 46 -62 43 -5 -4 -6 1 -3 9 3 9 2 16 -3 16 -10 0 -48 38 -119
118 -26 28 -49 52 -53 52 -3 0 -122 -97 -264 -216z m350 109 c-4 -3 1 -12 11
-20 15 -13 15 -13 -5 -4 -14 7 -24 8 -28 1 -3 -5 1 -10 9 -10 22 0 20 -17 -3
-30 -28 -14 -36 -12 -21 5 7 8 10 15 6 15 -3 0 -9 0 -13 0 -5 0 -8 -6 -8 -12
-1 -7 -7 -12 -14 -10 -7 1 -10 -2 -7 -7 5 -8 -16 -23 -36 -25 -4 -1 -13 -7
-20 -15 -11 -12 -10 -13 3 -8 9 3 16 0 16 -8 0 -10 -5 -11 -19 -4 -16 9 -22 5
-20 -13 1 -3 -5 -12 -13 -18 -12 -10 -15 -10 -15 1 0 7 -16 -2 -35 -21 -19
-18 -37 -31 -40 -29 -4 5 243 219 253 219 3 0 2 -3 -1 -7z m71 -78 c-3 -3 -9
2 -12 12 -6 14 -5 15 5 6 7 -7 10 -15 7 -18z m-108 -10 c11 -13 10 -14 -4 -9
-9 3 -16 10 -16 15 0 13 6 11 20 -6z m-76 -73 c2 -4 -4 -8 -14 -8 -10 0 -16 4
-14 8 3 4 9 8 14 8 5 0 11 -4 14 -8z m-99 -52 c-10 -11 -22 -20 -28 -20 -5 0
1 9 14 20 31 25 37 25 14 0z m-47 -35 c-3 -3 -9 2 -12 12 -6 14 -5 15 5 6 7
-7 10 -15 7 -18z m-22 3 c4 -7 3 -8 -4 -4 -7 4 -12 2 -12 -3 0 -6 -5 -11 -11
-11 -8 0 -8 5 1 15 15 18 17 18 26 3z"/>
<path d="M5597 5055 c-247 -46 -451 -86 -454 -89 -3 -3 -30 -205 -59 -448 -30
-244 -60 -491 -67 -551 -7 -59 -10 -106 -6 -105 3 2 38 41 76 88 507 622 765
937 855 1043 59 71 108 132 108 138 0 5 -1 8 -2 8 -2 -1 -205 -39 -451 -84z"/>
<path d="M4967 5039 c4 -13 8 -18 11 -10 2 7 -1 18 -6 23 -8 8 -9 4 -5 -13z"/>
<path d="M4596 4843 c-6 -14 -5 -15 5 -6 7 7 10 15 7 18 -3 3 -9 -2 -12 -12z"/>
<path d="M3137 4063 c3 -7 9 -10 14 -7 14 8 11 21 -5 21 -8 0 -12 -6 -9 -14z"/>
<path d="M2551 3754 c0 -11 3 -14 6 -6 3 7 2 16 -1 19 -3 4 -6 -2 -5 -13z"/>
<path d="M6320 2500 c0 -5 7 -7 15 -4 8 4 15 8 15 10 0 2 -7 4 -15 4 -8 0 -15
-4 -15 -10z"/>
</g>
</svg>
